<svg xmlns="http://www.w3.org/2000/svg" viewBox="0 0 544.12 115.58" width="544" height="116" role="img" aria-label="Brain3">
<g transform="translate(13.210,13.210) scale(0.53074) translate(-16,-16)"><g fill="none" stroke-linecap="round">
<path d="M114.5,25.4 A76,76 0 1 1 85.5,25.4" stroke="#5440CE" stroke-width="16"/>
<path d="M118.7,146.4 A50,50 0 1 1 137.2,133.5" stroke="#6856E9" stroke-width="14"/>
<path d="M76.4,111.0 A26,26 0 1 1 85.1,121.3" stroke="#877CF0" stroke-width="12"/>
</g>
<circle cx="100" cy="98.5" r="6.5" fill="#A69EF6"/>
<rect x="96.75" y="100" width="6.5" height="10" rx="3.25" fill="#A69EF6"/></g>
<path d="M722 519Q722 392 607 359V355Q738 325 738 183Q738 129 711.5 87.5Q685 46 639.0 23.0Q593 0 538 0H74V688H532Q584 688 627.5 666.5Q671 645 696.5 606.0Q722 567 722 519ZM295 420H447Q469 420 483.5 435.5Q498 451 498 474V484Q498 506 483.0 521.5Q468 537 447 537H295ZM295 160H463Q485 160 499.5 175.5Q514 191 514 214V224Q514 247 499.5 262.5Q485 278 463 278H295Z" transform="translate(122.189,99.072) scale(0.120000,-0.120000)" fill="#3A3F4B"/>
<path d="M440 529V362H376Q314 362 286.5 330.0Q259 298 259 235V0H60V528H223L236 448Q254 494 293.0 517.5Q332 541 381 541Q404 541 422.0 535.5Q440 530 440 529Z" transform="translate(211.949,99.072) scale(0.120000,-0.120000)" fill="#3A3F4B"/>
<path d="M594 368V162Q594 145 602.0 134.0Q610 123 626 123H662V8Q659 6 646.5 1.5Q634 -3 611.0 -7.5Q588 -12 558 -12Q500 -12 462.5 5.5Q425 23 411 54Q373 24 326.0 6.0Q279 -12 216 -12Q30 -12 30 136Q30 213 71.5 253.5Q113 294 191.0 309.0Q269 324 395 324V350Q395 381 373.5 397.0Q352 413 318 413Q287 413 264.5 402.0Q242 391 242 367V363H46Q45 368 45 377Q45 452 116.5 496.0Q188 540 321 540Q442 540 518.0 499.5Q594 459 594 368ZM229 162Q229 112 297 112Q336 112 365.5 133.0Q395 154 395 185V230Q310 230 269.5 211.5Q229 193 229 162Z" transform="translate(261.629,99.072) scale(0.120000,-0.120000)" fill="#3A3F4B"/>
<path d="M67 590V725H266V590ZM67 0V528H266V0Z" transform="translate(338.069,99.072) scale(0.120000,-0.120000)" fill="#3A3F4B"/>
<path d="M608 342V0H409V318Q409 352 391.5 372.5Q374 393 342 393Q305 393 282.0 369.0Q259 345 259 310V0H60V528H223L236 448Q267 490 317.5 515.0Q368 540 424 540Q516 540 562.0 489.0Q608 438 608 342Z" transform="translate(374.429,99.072) scale(0.120000,-0.120000)" fill="#3A3F4B"/>
<path d="M605 513Q605 461 577.0 419.5Q549 378 505 361V357Q562 339 593.5 294.5Q625 250 625 187Q621 99 548.5 43.5Q476 -12 335 -12Q238 -12 172.0 14.0Q106 40 74.0 85.0Q42 130 42 186V207H218Q218 125 322 125Q426 125 426 217Q426 252 406.5 270.5Q387 289 356 289H283V412H340Q371 412 390.5 430.5Q410 449 410 484Q410 517 386.5 540.0Q363 563 322 563Q279 563 255.0 541.0Q231 519 231 487H64V512Q64 564 96.5 607.0Q129 650 191.5 675.0Q254 700 339 700Q421 700 481.5 675.0Q542 650 573.5 607.5Q605 565 605 513Z" transform="translate(450.869,99.072) scale(0.120000,-0.120000)" fill="#F3A62B"/>
</svg>